<svg xmlns="http://www.w3.org/2000/svg" width="43" height="43" viewBox="0 0 43 43" fill="none">
  <path d="M42.5 22C42.5 33.3108 33.1091 42.5 21.5 42.5C9.89086 42.5 0.5 33.3108 0.5 22C0.5 10.6892 9.89086 1.5 21.5 1.5C33.1091 1.5 42.5 10.6892 42.5 22Z" fill="#FEFCF8" stroke="#898A8D"/>
  <rect x="16.6751" y="7" width="2.07141" height="2.07141" fill="#898A8D"/>
  <rect x="16.6751" y="15.2861" width="2.07141" height="2.07141" fill="#898A8D"/>
  <rect x="14.6037" y="9.07129" width="6.21422" height="6.21422" fill="#898A8D"/>
  <rect x="14.6037" y="9.07129" width="6.21422" height="6.21422" fill="#898A8D"/>
  <rect x="10.4609" y="15.2861" width="2.07141" height="2.07141" fill="#898A8D"/>
  <rect x="18.7465" y="19.4287" width="6.21422" height="2.07141" fill="#898A8D"/>
  <rect x="14.6037" y="33.9287" width="6.21422" height="2.07141" fill="#898A8D"/>
  <rect x="22.8893" y="33.9287" width="6.21422" height="2.07141" fill="#898A8D"/>
  <rect x="16.6751" y="21.5" width="10.357" height="2.07141" fill="#898A8D"/>
  <rect x="14.6037" y="23.5713" width="14.4999" height="2.07141" fill="#898A8D"/>
  <rect x="12.5323" y="25.6426" width="18.6427" height="2.07141" fill="#898A8D"/>
  <rect x="12.5323" y="25.6426" width="18.6427" height="2.07141" fill="#898A8D"/>
  <rect x="12.5323" y="31.8569" width="18.6427" height="2.07141" fill="#898A8D"/>
  <rect x="10.4609" y="27.7139" width="22.7855" height="4.14282" fill="#898A8D"/>
  <rect x="31.1749" y="15.2861" width="2.07141" height="2.07141" fill="#898A8D"/>
  <rect x="8.38947" y="21.5" width="4.14282" height="2.07141" fill="#898A8D"/>
  <rect x="31.1749" y="21.5" width="4.14282" height="2.07141" fill="#898A8D"/>
  <rect x="8.38947" y="17.3569" width="6.21422" height="4.14282" fill="#898A8D"/>
  <rect x="29.1036" y="17.3569" width="6.21422" height="4.14282" fill="#898A8D"/>
  <rect x="8.38947" y="17.3569" width="6.21422" height="4.14282" fill="#898A8D"/>
  <rect x="29.1036" y="17.3569" width="6.21422" height="4.14282" fill="#898A8D"/>
  <rect x="24.9607" y="7" width="2.07141" height="2.07141" fill="#898A8D"/>
  <rect x="24.9607" y="15.2861" width="2.07141" height="2.07141" fill="#898A8D"/>
  <rect x="22.8893" y="9.07129" width="6.21422" height="6.21422" fill="#898A8D"/>
  <rect x="22.8893" y="9.07129" width="6.21422" height="6.21422" fill="#898A8D"/>
</svg>