<svg width="17" height="17" viewBox="0 0 17 17" fill="none" xmlns="http://www.w3.org/2000/svg">
<g id="Group 177675">
<g id="&#235;&#140;&#147;&#234;&#184;&#128;">
<path id="Vector" d="M15.8667 1.13335H1.1333V12.4667H15.8667V1.13335ZM2.18568 11.3333V2.26668H13.7619V6.80001V11.3333H2.18568Z" fill="#5B911F"/>
<path id="Vector_2" d="M14.7333 1.13335H1.1333V11.3333H14.7333V1.13335ZM2.26664 9.06668V5.66668V2.15335H13.7619V9.06668L7.93332 9.06668H2.26664Z" fill="#5B911F"/>
<path id="Vector_3" d="M1.13334 1.13335H0V11.3333H1.13334V1.13335Z" fill="white"/>
<path id="Vector_4" d="M4.53299 10.2H3.39966V11.3333H4.53299V10.2Z" fill="white"/>
<path id="Vector_5" d="M4.53299 11.3333H3.39966V12.4666H4.53299V11.3333Z" fill="white"/>
<path id="Vector_6" d="M4.53299 12.4666H3.39966V13.6H4.53299V12.4666Z" fill="white"/>
<path id="Vector_7" d="M3.40018 12.4666H2.26685V13.6H3.40018V12.4666Z" fill="#5B911F"/>
<path id="Vector_8" d="M3.40018 13.6H2.26685V14.7333H3.40018V13.6Z" fill="#5B911F"/>
<path id="Vector_9" d="M4.53299 13.6H3.39966V14.7333H4.53299V13.6Z" fill="#5B911F"/>
<path id="Vector_10" d="M5.66654 13.6H4.5332V14.7333H5.66654V13.6Z" fill="#5B911F"/>
<path id="Vector_11" d="M5.66654 12.4666H4.5332V13.6H5.66654V12.4666Z" fill="#5B911F"/>
<path id="Vector_12" d="M4.53299 14.7333H3.39966V15.8667H4.53299V14.7333Z" fill="#5B911F"/>
<path id="Vector_13" d="M2.26664 11.3333H1.1333V14.7333H2.26664V11.3333Z" fill="white"/>
<path id="Vector_14" d="M3.40018 14.7333H2.26685V15.8667H3.40018V14.7333Z" fill="white"/>
<path id="Vector_15" d="M4.53299 15.8667H3.39966V17H4.53299V15.8667Z" fill="white"/>
<path id="Vector_16" d="M5.66654 14.7333H4.5332V15.8667H5.66654V14.7333Z" fill="white"/>
<path id="Vector_17" d="M6.79984 13.6H5.6665V14.7333H6.79984V13.6Z" fill="white"/>
<path id="Vector_18" d="M6.79984 12.4666H5.6665V13.6H6.79984V12.4666Z" fill="white"/>
<path id="Vector_19" d="M15.8667 11.3333H6.80005V12.4666H15.8667V11.3333Z" fill="white"/>
<path id="Vector_20" d="M5.66654 10.2H4.5332V11.3333H5.66654V10.2Z" fill="white"/>
<path id="Vector_21" d="M5.66654 11.3333H4.5332V12.4666H5.66654V11.3333Z" fill="white"/>
<path id="Vector_22" d="M6.79984 10.2H5.6665V11.3333H6.79984V10.2Z" fill="white"/>
<path id="Vector_23" d="M16.9998 1.13335H15.8665V12.4667H16.9998V1.13335Z" fill="white"/>
<path id="Vector_24" d="M15.8666 0H1.13324V1.13333H15.8666V0Z" fill="white"/>
<path id="Vector_25" d="M14.7335 2.26665H2.26685V6.23331V10.2H14.7335V2.26665Z" fill="white"/>
<path id="Vector_26" d="M5.66654 5.66667H4.5332V6.8H5.66654V5.66667Z" fill="#A2D660"/>
<path id="Vector_27" d="M9.06669 5.66667H7.93335V6.8H9.06669V5.66667Z" fill="#A2D660"/>
<path id="Vector_28" d="M14.7543 8.85789H7.59644V10.2H14.7543V8.85789Z" fill="#DADADA" fill-opacity="0.8"/>
<path id="Vector_29" d="M3.57868 8.85789H2.23657V10.2H3.57868V8.85789Z" fill="#DADADA" fill-opacity="0.8"/>
<path id="Vector_30" d="M12.4668 5.66667H11.3335V6.8H12.4668V5.66667Z" fill="#A2D660"/>
</g>
</g>
</svg>
